<mxfile host="app.diagrams.net" modified="2024-03-07T03:48:25.436Z" agent="Mozilla/5.0 (Windows NT 10.0; Win64; x64) AppleWebKit/537.36 (KHTML, like Gecko) Chrome/122.0.0.0 Safari/537.36" etag="u7Qd2jTVsAo3DK1Q4hmI" version="24.0.2" type="github">
  <diagram name="第 1 页" id="m3vkuQfG8oOIkfmdO7dK">
    <mxGraphModel dx="202" dy="122" grid="1" gridSize="10" guides="1" tooltips="1" connect="1" arrows="1" fold="1" page="1" pageScale="1" pageWidth="827" pageHeight="1169" math="1" shadow="0">
      <root>
        <mxCell id="0" />
        <mxCell id="1" parent="0" />
        <mxCell id="Lt7-tqbaoz_NpnmCxqyy-107" value="" style="rounded=1;whiteSpace=wrap;html=1;dashed=1;" vertex="1" parent="1">
          <mxGeometry x="166" y="355" width="100" height="80" as="geometry" />
        </mxCell>
        <mxCell id="Lt7-tqbaoz_NpnmCxqyy-1" value="" style="shape=image;verticalLabelPosition=bottom;verticalAlign=top;imageAspect=0;aspect=fixed;image=data:image/png,iVBORw0KGgoAAAANSUhEUgAAAMgAAADICAYAAACtWK6eAAAAAXNSR0IArs4c6QAAFdpJREFUeF7tnQ2UXVV1x39hJh+TzJgwk++kDWiFWsDEtioGETECpRhDkW+ixY9ii1oLVLtWAQWVtIqEFj9ZIrZFEq2WWlBAgYKCFkUBC7LIQi2BfCfkeyaZyUzStfPum7z77rvvnnvvmfPOnbv3Wm/NJLPPPvv89/m/c+655+wzBhVFQBGIRWCMYqMIKALxCChBtHcoAk0QUIJo91AElCDaBxSBbAjoCJINNy1VEgSUICUJtDYzGwJKkGy4aamSIKAEKUmgtZnZEFCCZMNNS5UEASVISQKtzcyGgBIkG25aqiQIKEFKEmhtZjYElCDZcNNSJUFACVKSQGszsyGgBMmGm5YqCQJKEPNA/y7wgrl6YTV/D/h1Yb237LgSJBnQPwG+BBwR/PwgsD+5WOE0DgO+ArwH2AX8oRIFlCDJ/fizwBU1ancAFwADyUULozEOWAmcVePxPcCfFqYFI+SoEiQZ2HqCSIm7gPOBvuTi3mtMDMjx9jpPfwy80XvvR9hBJUgywDLFkm/TepH/k5FkR7IJbzVeBnwDOL2Bh0uAO7313JFjShAzoM8B/r2B6n0BSV4yM+OVVndAjlMaeHUu8C2vvG2RM0oQc+DjSPJgQJKN5qZarjk9IMfJSo7msVCCpOurcSR5OCDJ2nTmWqI9OyDHiUqOZPyVIMkY1WvEkeTR4MF9dXqTzkrMC8hxvJLDDHMliBlOpiT5eUCS3zQxK+8b3gTMBGYFn/rfe4Ly/cCLwQtK+dnoY7pI8IqAHH+s5DAPuhLEHCtTkjwZTLeeDQpMCgghU5qTgIXZq2xYUur5DvBt4Bcxto8OyLFAyZEOfSVIOrxMSfJ00FnlIVi2qLiSdQFZbq0hiyzl/gQ4RsmRPgxKkPSYmZIkv+V8FnqB24H/Ab6m5MgGphIkG25WSHLYFGibAocdDvJ79d9jOgPz++FAL+zvgwN9sL+38rP/qcrPHKLvOQzBU4IYAtVE7b3APwHVbh2rOv41MOF4mPCGyiePDPwK+n8J+1ZB9XdDe0oOQ6BETQmSAqw6VdmndDVwapyJtpnQ8WaY8LrKp21G9sqSSg48A3segb3ykUlVc/k6cBmwJUmx7H9XgmTrAR8HPgbIkm1Exr4COt8BnWdXpk+uZd/z0Hsn7P4mDG2KrV22tP8NIA/0KjEIKEHSdQ05I3EdIBsYIzJ+PnSeW/n4IEKOXd9IJMp/Ah8A1vvgs28+KEHMI/JXATkiY0LHSTDhBGifXfm0yaf6qs/cvlXNA/tgaHNlBBlcDftWNyWKvNj8c0C2uKvUIKAEMesO/wq8y0y1ojXpTJh8KYw9Mk0pO7q7VsDOm2FQ3oqkE2njbemKjG5tJUhyfFOTo9bk5A/BlL9OrsSWxqa/gD0P5bJ2DXBtLgujqLASpHkw5QH23Xnj3dYNc3+a10py+dWvTNYx1BBKf85Qd1SrKUHiwyv7m+RUnRXpugi65bt5hGT7DbDjy1aNfxi4yarFAhpTgjQO2gPAWwzjKRMaeR+yChgEXg6cHbxnGF9rY8bXYcLrDa2mUOt7ADb/ZcMCfwfcCzwHTAl8E82lhuavBJYZ6o5KNSVINKz/UZfd46DGyy6Gnf8SUZbds422j4uiLAkLebqqpToWwXS73/IHt5ysWwyD0YxdklTimzG9Vs7Sr6j928S3Qt/9DbVl9c6y18XhkhIkHKvlwTd/6H97Pg27boMB2aN7SH4FHJsQ6otrNwq2TYe5lhdS+5+EDXKEKyyy9UXelDeTG4MXhQd1Jp0BQ9tgr+z7Dctu4LRgR3BxerYlT5Ugh4CUhHCRB9Puq2DiabAmekDVdI4uU6+jqtXMeQDaLW6Al7flL10V6Q0yqsWdDakqvw4YXjqQt/+z7oKNS6H/8Yg9oY2QRMhSKlGCVMIt+6rkXHlIpnwYJn8Q+u6BzdGlWtO0OLLv6aKq4ek3Q4fp041BV9z6icroVieSsWRbQnHRCWVjmfccDG2ETe+vbICsE5lmyXSrVKIEqYRbEsG9rTbyXUuhW3ZcSR7O20A6Yp38WXA4KanDhAhi+72IfOPvjS4hTzPYiBghyKw7YNxxsO83sOmShs81pXuRqASB99c/hMoD6zTJxhvI4IuwNvqtLytEn0liR7C6NTzFmrkSxsc91hsYq1fZeQts+3SkoIyISU87oSkW7TBPnrHaKrb6fgCbZYdWWGQ1TI4Nl2bfVtkJMieYWg1vCBkzFmZIJ54f7hkbzq6cv6gR2Q0rr+aa5cMKPaSPGQ+/8ziMkUy4lkS+7ddFt07KqPXOhCpCD+mdZ4EsRtTK9ptgR/R1oXx1XGrJfe/NlJ0g8iLsQ7VRipsCxXSW/wXqqDRsLbrMexJMv8V+n2hAXqlEnntCS7k1NUeWeaf+M0xqkKpaRhEZTerkHYAk8R71UmaCvBqQ9ZpgUlEZNWT0kFGkXgZWwab3NDxfISOIfPd+P5h6xL4otP38UfUxhrzyZ9kqI283xDd5aSm+RV4Uth8Bs74Nh02Otlver2w4v7IzuEYkvdFrRz07Sn6iUN4VyFLtsMhzhzx/xEnMapZRP5EXjYfLe+kRkpeuhN2Nsgcn1dcGM26BCU3yuG9fDjtqnskCk81eRCbVWpi/l3UEkSRqMnpISpyD0nUBdEdXqiKBbPJtHRt0OV3Y848j3CeGYOO7jY7bhhzpWQad0ReNIR0ZRdYvgf3htyDfq1/5G+EWtsR8WQkipwL/voq4HIud9Z3KYScT2fpxkDMXJtJ5PvR80kQzv87gWti2rOEzQ8S4vNXvPM98K/626xputZG8X/k21+dv9ohaKCNBpgJPBak/D4IrHaXnU+lwHlwDu+9ouMozPCJ1XQxjZdbvWGT7ye6VFf/qRYghO4tlyjdGrs4xlIFnK6NI3eVzXwXeZ2iikGplJIik6QmtJU3/KnRIttwMcmAA+p8IFxy/AGRJt9UiI4oQuVby7Cbe8lHolRPsh0Syosh0dWer2zpS9ZeRIHJr0uIqoOOOqUyvVJIR6LsPNkffgMgTjOQFHpVSNoL8ARDaZTTlcphcuh1G2fvy2rdWkkDUiNyMe0l2i36XLBtB5MFcHtCHZc6D0D7X7yD55N22z8BOocQheR6Qu9WHfPLTli9lI8gjwAlV8GQb+7TP24KyHHZizp/IVvjo+/ZRAEnZCCIpnztGQdx8a4IcOU65DuhbExr7UyaCyCUy1UttihGd4ngpxwXq71kvjvdNPC0TQSSA/zUqouZfIzYAxxmcQfHP8wSPykQQ2VD40cJFqDgOnwHcXRx3zTwtE0GC84FmwKhWJgRGXUbGMhEkU8S1ULkRUIKUO/7aen0G0T6gCGRHQEeQ7NhpyRIgoAQpQZC1idkR8JUgC4Kct68Kctz+ESAbtyUDlCRKkAQ196VotqxgjWBu9RSejG7VNP3pFEDiewwg8ZWPxPdnQXwfA+oOErgHL02DXHknF0tKh5Zs5M0kzS5SJYib6Jn2p1DKoRjXegE5qNzSLSymDXIDL/ybQT6nWl/kkjFJ6Sb5b5uJEsRNBE36k4wKMkMwlUeBnLfKm1YV1TNpUHbr6UrenONcgdxAHn/hcWVE0ilWunhk0U7qT2sBw5P/oerlcod5WRzKWyapQXntm5Y/C5B7OUIiKTo7Tob2ORy8B0MyG+4WLbmmJizN7ukQzQhB5DIblXwISF7gOmnWnxp+SU08FcYeXblYaO8j0P905WcDMc2mn69RKRpktaImxiRTrTyQhaTnH6BT7mlqIJveB3t+GPmDzGsvj6knEhzJZK6SHQFJmJ2CIHLPoySxC0ncjVt7/ruSYb6BSNYyuf3LmfgwgkhKstAFYlNvhEmhXOtRPDZcCP0RWh1MIPDbBugpQSx3qZQEkazGkslyWJLuSZFcXGsXRZyWe0qGD7xZblJDcz4QRLKQL6x6N2kxTJV7nhIk5mTbmTFb2pUgSYCm/HsKgkhC0+215qdcAZMb36kY8kIuJZXLSWtkL3A4ID+diA8EkSzpndXWprlgRvI0DTwTwinuZJsSxHJ3SkGQyOVEcx+GtpnJDu1bBeuiMwlZ0ZKVLSfSaoLIi6JQF5/zI2ifZdb2LZdB73dDupKd9rwGpZUgZpAaa6UgiOSM+WLV8NgjYbbh6fX9u+BFyZEfFqeXiraaIG8GHqxtfyqCfAR6wzmtJA2mpMOsFyWIcdc3U0xBkBD2slqVZgVxtdzAEhZZrnd27kQJYtYfVKsOASWImy6hI4gbnK3XogSxDmlDg0oQNzhbr0UJYh1SJYgbSN3UogRxg7OOIG5wtl6LEsQ6pDqCuIHUTS1KEDc46wjiBmfrtShBrEOqI4gbSN3UogRxg7OOIG5wtl6LEsQ6pDqCuIHUTS1KEDc46wjiBmfrtShBrEOqI4gbSN3UogRxg7OOIG5wtl6LEsQ6pDqCuIHUTS1KEDc46wjiBmfrtShBrEOqI4gbSN3UogRxg7OOIG5wtl6LEsQ6pDqCuIHUTS1KEDc46wjiBmfrtShBrEOqI4gbSN3UogRxg7OOIG5wtl6LEsQ6pDqCuIHUTS1KEDc46wjiBmfrtShBrEOqI4gbSN3UogRxg7OOIG5wtl6LEsQ6pDqCuIHUTS1KEDc46wjiBmfrtShBrEOqI4gbSN3UogRxg7OOIG5wtl6LEsQ6pDqCuIHUTS1KEDc46wjiBmfrtShBrEOqI4gbSN3UogRxg7OOIG5wtl6LEsQ6pDqCuIHUTS1KEDc46wjiBmfrtShBrEOqI4gbSN3UogRxg7OOIG5wtl6LEsQ6pDqCuIHUTS1KEDc46wjiBmfrtShBrEPa0KBcE/+L2r+kuif9cui9K2RX/vX2BjXpPemW45mCIJcDN1SrH3s0zP6umTMH9sILx0V0rwCWm1nIr9Xqe9LbgT5gbLUp02+FjhPNGrbhbOj/ZUj3KuA6JYgZfnm0UhDkTcAPa+ua+zC0zUyufWAVrH9bRO8k4EfJpe1otJog0opHgBOqzek8B3qWJTdu4FlYvziiJ//T6PtJR5BkSFNppCBIN/BSrfHua6DrouTqdt0OW6+J6PUAW5NL29HwgSBfAC6tbc70W6BDvieayKZLYM+DEYWXA/+nI4idztHMSgqCiJkngfmhUeSn0CbUiZGhrbDm9ZE/ynxhwci37lANPhBkEXB/baPHTICpy2HiKY2h2HIF9N4Z+dsKIO57SUcQy70qJUFk6vvJehe6r4WuC6OObb8JdnyuocMfAT5ruSlNzflAEHFQHrouq/d04qnQ8RZonwsH+qD/Sdj9LRjaHGnTDmAO0BvTWiWI5V6VkiBS+7PA0ZEYnw7j58O4Yyvx7f8Z7Gn8hPEQcLLlZiSa84Ug4ugq4KhEjxsrLAGiY8ohXSVIRmDjimUgyELgxzncGA8M5CifqahPBJEGyFRLplxpRAbplQkFlCBpEDXQzUAQsXoBIFPhNPJ8sHT/VJpCtnR9I4i0652APLh3JTTyeuBqoN8ADCWIAUhpVDISRKqQkUCeR+R5opnIaCHT7i+m8cu2ro8EkTa+GjgVeGPwkaU9kUcBmYvKuvq9KcBQgqQAy0Q1B0Gq5k+ria/EWd6J7a2J7z1A+C2XiWOWdXwlSH0zXxMs327P2H4lSEbg4opZIEitaSGHkES+/LySohAkL2hKkLwI1pW3TBDL3tkzpwSxh2WpLClBRle4dQSxHE8liGVAW2xOCWI5AEoQy4C22JwSxHIAlCCWAW2xOSWI5QAoQSwD2mJzShDLAVCCWAa0xeaUIJYDoASxDGiLzSlBLAdACWIZ0BabU4JYDoASxDKgLTYn+7q+X+vD7Lth7Ctb7FWBq9+2DHZ+LdQA2cou20VGlZTlTfoMYENt5Lo/Bl2yb1glNQKSbWTDeTDwTKionPRL2qGbuq5WFygLQQRn2Rkqu4SHZdpNMPH0VoegePVvXAoyxaqTdwG3Fa81zT0uE0GuBD5VD8ekxdB5HkyIJggYbbHO1Z792ytHYXd8Cfb9OmJKDjW9FtiSqxIPC5eJIAK/TApeZSsO854ztxTzrWtuwECzhf5cAnzFwMXCqZSNIEcCv7UVpRZ2yIZNaJE/dwNn2MLUNztlI0gV/8iyb5bAtKhDxrrq2B/JJLM0JlFfFji9LFNWgkgwJHG2BPh44Jgs0XHcIRNddODPHuAx4OdBfqr1iU4VXKHMBKkNnSwDmzybhHI55uyQcrz02pz9x6U/u+oTjef0vRDFlSDmYYpc1WCBIHkSofnmjzmSBdJUgpgHy7cO6Zs/5kgWSFMJYh4s3zqkb/6YI1kgTSWIebB865C++WOOZIE0lSDmwfKtQ/rmjzmSBdJUgpgHy7cO6Zs/5kgWSFMJYh4s3zqkb/6YI1kgTSWIebB865C++WOOZIE0lSDmwfKtQ/rmjzmSBdJUgpgHy7cO6Zs/5kgWSFMJYh4s3zqkb/6YI1kgTSWIebB865C++WOOZIE0lSDmwfKtQ/rmjzmSBdJUgpgHy7cO6Zs/5kgWSFMJYh4s3zqkb/6YI1kgTSWIebB865C++WOOZIE0lSDmwfKtQ/rmjzmSBdJUgpgHy7cO6Zs/5kgWSFMJYh4s3zqkb/6YI1kgTSWIebB865C++WOOZIE0lSDmwfKtQ/rmjzmSBdJUgpgHy7cO6Zs/5kgWSFMJYh6so4BVtepzHoL2OWYG1i+JZENfCVxoVrqhVi5/1i6CwRdCdm8F3pvDn1FZVAmSLqw7ga5qkanXw6QzzQysWQhDm0O6fwvcYFY6ViuTP4NrYa2MP2GRJHq35/Rn1BVXgqQLqSRqG+5anedAz7JkA/1PwIZzI3py8cK9yaWbamTyZ9ftsPWaiF0ZkVKk487peUGKK0HSBerzwAdqi0z7Mkxc1NzIutNgXzRl9hHA6nTVR7RT+zO0FdZEr3p4Gjgupy+jsrgSJF1YhQr31xeRm6rkxqp66bsHtn4ChqK3ZqwALkpXdUNtGYUku3pI4vzZtQK2StruqFzd6O4UC/4V3oQSJH0IlwOX1RfrOBHGLYDxx8Lgeuh/DHq/19C4ZEWXR/ve9FU3LCFkuyCHP7Lw8PuWfBl1ZpQg2UIqnUrm7FlkCXBnloJNyhzIYe8E4Cc5yo/qokqQ7OGVqVbC00fEuCzryvKubZHnByGdPNekkZHyJ40PXusqQfKFR+7J/ULt0m+MuesBmef356susfSlwI3AuARNV/4kOuy7ghIkf4Tk5tyFwPzgFl35t1ws8wTwePDzB/mrMbYgfrzBI3+MHfdRUQniY1TUJ28QUIJ4Ewp1xEcElCA+RkV98gYBJYg3oVBHfERACeJjVNQnbxBQgngTCnXERwSUID5GRX3yBgEliDehUEd8REAJ4mNU1CdvEFCCeBMKdcRHBJQgPkZFffIGASWIN6FQR3xEQAniY1TUJ28QUIJ4Ewp1xEcElCA+RkV98gYBJYg3oVBHfERACeJjVNQnbxBQgngTCnXERwSUID5GRX3yBgEliDehUEd8ROD/AaZVXzLS/jqlAAAAAElFTkSuQmCC" vertex="1" parent="1">
          <mxGeometry x="40" y="230" width="50" height="50" as="geometry" />
        </mxCell>
        <mxCell id="Lt7-tqbaoz_NpnmCxqyy-2" value="" style="shape=flexArrow;endArrow=classic;html=1;rounded=0;" edge="1" parent="1">
          <mxGeometry width="50" height="50" relative="1" as="geometry">
            <mxPoint x="90" y="254.5" as="sourcePoint" />
            <mxPoint x="130" y="255" as="targetPoint" />
          </mxGeometry>
        </mxCell>
        <mxCell id="Lt7-tqbaoz_NpnmCxqyy-3" value="" style="rounded=1;whiteSpace=wrap;html=1;dashed=1;" vertex="1" parent="1">
          <mxGeometry x="140" y="210" width="110" height="90" as="geometry" />
        </mxCell>
        <mxCell id="Lt7-tqbaoz_NpnmCxqyy-14" value="" style="whiteSpace=wrap;html=1;shape=mxgraph.basic.document;fillColor=#00188D;strokeWidth=2;" vertex="1" parent="1">
          <mxGeometry x="170" y="231" width="40" height="40" as="geometry" />
        </mxCell>
        <mxCell id="Lt7-tqbaoz_NpnmCxqyy-15" value="" style="whiteSpace=wrap;html=1;shape=mxgraph.basic.document;fontStyle=1;fillColor=#00188D;strokeWidth=2;" vertex="1" parent="1">
          <mxGeometry x="177" y="239" width="40" height="40" as="geometry" />
        </mxCell>
        <mxCell id="Lt7-tqbaoz_NpnmCxqyy-16" value="&lt;font color=&quot;#e6e6e6&quot;&gt;smali&lt;/font&gt;" style="whiteSpace=wrap;html=1;shape=mxgraph.basic.document;fillColor=#00188D;strokeWidth=2;" vertex="1" parent="1">
          <mxGeometry x="184" y="246" width="40" height="40" as="geometry" />
        </mxCell>
        <mxCell id="Lt7-tqbaoz_NpnmCxqyy-20" value="（a）反编译" style="text;html=1;align=center;verticalAlign=middle;resizable=0;points=[];autosize=1;strokeColor=none;fillColor=none;" vertex="1" parent="1">
          <mxGeometry x="87" y="300" width="90" height="30" as="geometry" />
        </mxCell>
        <mxCell id="Lt7-tqbaoz_NpnmCxqyy-26" value="" style="shape=flexArrow;endArrow=classic;html=1;rounded=0;" edge="1" parent="1">
          <mxGeometry width="50" height="50" relative="1" as="geometry">
            <mxPoint x="450" y="230.71000000000004" as="sourcePoint" />
            <mxPoint x="490" y="231.21000000000004" as="targetPoint" />
          </mxGeometry>
        </mxCell>
        <mxCell id="Lt7-tqbaoz_NpnmCxqyy-32" style="rounded=0;orthogonalLoop=1;jettySize=auto;html=1;exitX=0.5;exitY=1;exitDx=0;exitDy=0;entryX=0.5;entryY=0;entryDx=0;entryDy=0;endArrow=open;endFill=0;" edge="1" parent="1" source="Lt7-tqbaoz_NpnmCxqyy-27" target="Lt7-tqbaoz_NpnmCxqyy-28">
          <mxGeometry relative="1" as="geometry" />
        </mxCell>
        <mxCell id="Lt7-tqbaoz_NpnmCxqyy-33" style="edgeStyle=orthogonalEdgeStyle;rounded=0;orthogonalLoop=1;jettySize=auto;html=1;exitX=0.5;exitY=1;exitDx=0;exitDy=0;entryX=0.5;entryY=0;entryDx=0;entryDy=0;endArrow=open;endFill=0;" edge="1" parent="1" source="Lt7-tqbaoz_NpnmCxqyy-27" target="Lt7-tqbaoz_NpnmCxqyy-29">
          <mxGeometry relative="1" as="geometry" />
        </mxCell>
        <mxCell id="Lt7-tqbaoz_NpnmCxqyy-34" style="rounded=0;orthogonalLoop=1;jettySize=auto;html=1;exitX=0.5;exitY=1;exitDx=0;exitDy=0;entryX=0.5;entryY=0;entryDx=0;entryDy=0;endArrow=open;endFill=0;" edge="1" parent="1" source="Lt7-tqbaoz_NpnmCxqyy-27" target="Lt7-tqbaoz_NpnmCxqyy-30">
          <mxGeometry relative="1" as="geometry" />
        </mxCell>
        <mxCell id="Lt7-tqbaoz_NpnmCxqyy-27" value="MainActivity" style="ellipse;whiteSpace=wrap;html=1;" vertex="1" parent="1">
          <mxGeometry x="515" y="191" width="80" height="24" as="geometry" />
        </mxCell>
        <mxCell id="Lt7-tqbaoz_NpnmCxqyy-28" value="A" style="ellipse;whiteSpace=wrap;html=1;" vertex="1" parent="1">
          <mxGeometry x="500" y="230" width="30" height="18" as="geometry" />
        </mxCell>
        <mxCell id="Lt7-tqbaoz_NpnmCxqyy-29" value="B" style="ellipse;whiteSpace=wrap;html=1;" vertex="1" parent="1">
          <mxGeometry x="540" y="231" width="30" height="18" as="geometry" />
        </mxCell>
        <mxCell id="Lt7-tqbaoz_NpnmCxqyy-35" style="rounded=0;orthogonalLoop=1;jettySize=auto;html=1;exitX=0.5;exitY=1;exitDx=0;exitDy=0;entryX=0.5;entryY=0;entryDx=0;entryDy=0;endArrow=open;endFill=0;" edge="1" parent="1" source="Lt7-tqbaoz_NpnmCxqyy-30" target="Lt7-tqbaoz_NpnmCxqyy-31">
          <mxGeometry relative="1" as="geometry" />
        </mxCell>
        <mxCell id="Lt7-tqbaoz_NpnmCxqyy-30" value="C" style="ellipse;whiteSpace=wrap;html=1;" vertex="1" parent="1">
          <mxGeometry x="580" y="231" width="30" height="18" as="geometry" />
        </mxCell>
        <mxCell id="Lt7-tqbaoz_NpnmCxqyy-31" value="D" style="ellipse;whiteSpace=wrap;html=1;" vertex="1" parent="1">
          <mxGeometry x="588" y="261" width="30" height="18" as="geometry" />
        </mxCell>
        <mxCell id="Lt7-tqbaoz_NpnmCxqyy-38" value="&lt;div style=&quot;font-size: 11px;&quot;&gt;&lt;font style=&quot;font-size: 11px;&quot;&gt;package com.example&lt;/font&gt;&lt;/div&gt;&lt;div style=&quot;font-size: 11px;&quot;&gt;&lt;font style=&quot;font-size: 11px;&quot;&gt;public class MainActivity {&lt;/font&gt;&lt;/div&gt;&lt;div style=&quot;font-size: 11px;&quot;&gt;&lt;span style=&quot;white-space: normal;&quot;&gt;&lt;font style=&quot;font-size: 11px;&quot;&gt;&lt;span style=&quot;white-space:pre&quot;&gt;&#x9;&lt;/span&gt;public static void callerEx() {&lt;/font&gt;&lt;/span&gt;&lt;/div&gt;&lt;div style=&quot;font-size: 11px;&quot;&gt;&lt;span style=&quot;white-space: normal;&quot;&gt;&lt;font style=&quot;font-size: 11px;&quot;&gt;&lt;span style=&quot;white-space:pre&quot;&gt;&#x9;&#x9;&lt;/span&gt;A()&lt;/font&gt;&lt;/span&gt;&lt;/div&gt;&lt;div style=&quot;font-size: 11px;&quot;&gt;&lt;span style=&quot;white-space: normal;&quot;&gt;&lt;font style=&quot;font-size: 11px;&quot;&gt;&lt;span style=&quot;white-space:pre&quot;&gt;&#x9;&#x9;&lt;/span&gt;B()&lt;/font&gt;&lt;/span&gt;&lt;/div&gt;&lt;div style=&quot;font-size: 11px;&quot;&gt;&lt;span style=&quot;white-space: normal;&quot;&gt;&lt;font style=&quot;font-size: 11px;&quot;&gt;&lt;span style=&quot;white-space:pre&quot;&gt;&#x9;&#x9;&lt;/span&gt;try {&lt;/font&gt;&lt;/span&gt;&lt;/div&gt;&lt;div style=&quot;font-size: 11px;&quot;&gt;&lt;span style=&quot;white-space: normal;&quot;&gt;&lt;font style=&quot;font-size: 11px;&quot;&gt;&lt;span style=&quot;white-space:pre&quot;&gt;&#x9;&#x9;&#x9;&lt;/span&gt;C().D();&lt;/font&gt;&lt;/span&gt;&lt;/div&gt;&lt;div style=&quot;font-size: 11px;&quot;&gt;&lt;span style=&quot;white-space: normal;&quot;&gt;&lt;font style=&quot;font-size: 11px;&quot;&gt;&lt;span style=&quot;white-space:pre&quot;&gt;&#x9;&#x9;&lt;/span&gt;} catch (Exception e) {}&lt;/font&gt;&lt;/span&gt;&lt;/div&gt;&lt;div style=&quot;font-size: 11px;&quot;&gt;&lt;span style=&quot;white-space: normal;&quot;&gt;&lt;font style=&quot;font-size: 11px;&quot;&gt;&lt;span style=&quot;white-space:pre&quot;&gt;&#x9;&lt;/span&gt;}&lt;/font&gt;&lt;/span&gt;&lt;/div&gt;&lt;div style=&quot;font-size: 11px;&quot;&gt;&lt;font style=&quot;font-size: 11px;&quot;&gt;}&lt;/font&gt;&lt;/div&gt;" style="rounded=0;whiteSpace=wrap;html=1;align=left;" vertex="1" parent="1">
          <mxGeometry x="270" y="170" width="167.69" height="130" as="geometry" />
        </mxCell>
        <mxCell id="Lt7-tqbaoz_NpnmCxqyy-57" value="" style="shape=flexArrow;endArrow=classic;html=1;rounded=0;" edge="1" parent="1">
          <mxGeometry width="50" height="50" relative="1" as="geometry">
            <mxPoint x="119.62" y="399" as="sourcePoint" />
            <mxPoint x="159.62" y="399.5" as="targetPoint" />
          </mxGeometry>
        </mxCell>
        <mxCell id="Lt7-tqbaoz_NpnmCxqyy-91" value="FCGs" style="text;html=1;align=center;verticalAlign=middle;resizable=0;points=[];autosize=1;strokeColor=none;fillColor=none;" vertex="1" parent="1">
          <mxGeometry x="62.31" y="346" width="50" height="30" as="geometry" />
        </mxCell>
        <mxCell id="Lt7-tqbaoz_NpnmCxqyy-65" value="" style="rounded=0;whiteSpace=wrap;html=1;" vertex="1" parent="1">
          <mxGeometry x="50" y="380" width="55.38461538461539" height="50" as="geometry" />
        </mxCell>
        <mxCell id="Lt7-tqbaoz_NpnmCxqyy-63" value="" style="group" vertex="1" connectable="0" parent="1">
          <mxGeometry x="54.61538461538461" y="385" width="55.38461538461539" height="50" as="geometry" />
        </mxCell>
        <mxCell id="Lt7-tqbaoz_NpnmCxqyy-48" style="rounded=0;orthogonalLoop=1;jettySize=auto;html=1;exitX=0.5;exitY=1;exitDx=0;exitDy=0;entryX=0.5;entryY=0;entryDx=0;entryDy=0;endArrow=none;endFill=0;" edge="1" parent="Lt7-tqbaoz_NpnmCxqyy-63" source="Lt7-tqbaoz_NpnmCxqyy-58" target="Lt7-tqbaoz_NpnmCxqyy-52">
          <mxGeometry relative="1" as="geometry">
            <mxPoint x="21.512385919165578" y="10.90909090909096" as="sourcePoint" />
          </mxGeometry>
        </mxCell>
        <mxCell id="Lt7-tqbaoz_NpnmCxqyy-49" style="rounded=0;orthogonalLoop=1;jettySize=auto;html=1;exitX=0.5;exitY=1;exitDx=0;exitDy=0;entryX=0.5;entryY=0;entryDx=0;entryDy=0;endArrow=none;endFill=0;" edge="1" parent="Lt7-tqbaoz_NpnmCxqyy-63" source="Lt7-tqbaoz_NpnmCxqyy-58" target="Lt7-tqbaoz_NpnmCxqyy-53">
          <mxGeometry relative="1" as="geometry">
            <mxPoint x="21.512385919165578" y="10.90909090909096" as="sourcePoint" />
          </mxGeometry>
        </mxCell>
        <mxCell id="Lt7-tqbaoz_NpnmCxqyy-50" style="rounded=0;orthogonalLoop=1;jettySize=auto;html=1;exitX=0.5;exitY=1;exitDx=0;exitDy=0;entryX=0.5;entryY=0;entryDx=0;entryDy=0;endArrow=none;endFill=0;" edge="1" parent="Lt7-tqbaoz_NpnmCxqyy-63" source="Lt7-tqbaoz_NpnmCxqyy-58" target="Lt7-tqbaoz_NpnmCxqyy-55">
          <mxGeometry relative="1" as="geometry">
            <mxPoint x="21.512385919165578" y="10.90909090909096" as="sourcePoint" />
          </mxGeometry>
        </mxCell>
        <mxCell id="Lt7-tqbaoz_NpnmCxqyy-52" value="" style="ellipse;whiteSpace=wrap;html=1;fillColor=#FFCC99;" vertex="1" parent="Lt7-tqbaoz_NpnmCxqyy-63">
          <mxGeometry y="17.727272727272727" width="11.734028683181224" height="8.18181818181818" as="geometry" />
        </mxCell>
        <mxCell id="Lt7-tqbaoz_NpnmCxqyy-53" value="" style="ellipse;whiteSpace=wrap;html=1;fillColor=#FFFF99;" vertex="1" parent="Lt7-tqbaoz_NpnmCxqyy-63">
          <mxGeometry x="15.645371577574966" y="18.181818181818183" width="11.734028683181224" height="8.18181818181818" as="geometry" />
        </mxCell>
        <mxCell id="Lt7-tqbaoz_NpnmCxqyy-54" style="rounded=0;orthogonalLoop=1;jettySize=auto;html=1;exitX=0.5;exitY=1;exitDx=0;exitDy=0;entryX=0.5;entryY=0;entryDx=0;entryDy=0;endArrow=none;endFill=0;" edge="1" parent="Lt7-tqbaoz_NpnmCxqyy-63" source="Lt7-tqbaoz_NpnmCxqyy-55" target="Lt7-tqbaoz_NpnmCxqyy-56">
          <mxGeometry relative="1" as="geometry" />
        </mxCell>
        <mxCell id="Lt7-tqbaoz_NpnmCxqyy-55" value="" style="ellipse;whiteSpace=wrap;html=1;fillColor=#CCFF99;" vertex="1" parent="Lt7-tqbaoz_NpnmCxqyy-63">
          <mxGeometry x="31.290743155149933" y="18.181818181818183" width="11.734028683181224" height="8.18181818181818" as="geometry" />
        </mxCell>
        <mxCell id="Lt7-tqbaoz_NpnmCxqyy-56" value="" style="ellipse;whiteSpace=wrap;html=1;fillColor=#99FF99;" vertex="1" parent="Lt7-tqbaoz_NpnmCxqyy-63">
          <mxGeometry x="34.41981747066493" y="31.81818181818182" width="11.734028683181224" height="8.18181818181818" as="geometry" />
        </mxCell>
        <mxCell id="Lt7-tqbaoz_NpnmCxqyy-58" value="" style="ellipse;whiteSpace=wrap;html=1;fillColor=#FF9999;" vertex="1" parent="Lt7-tqbaoz_NpnmCxqyy-63">
          <mxGeometry x="15.645371577574966" width="11.734028683181224" height="8.18181818181818" as="geometry" />
        </mxCell>
        <mxCell id="Lt7-tqbaoz_NpnmCxqyy-68" value="" style="rounded=0;whiteSpace=wrap;html=1;" vertex="1" parent="1">
          <mxGeometry x="55" y="375" width="55.38461538461539" height="50" as="geometry" />
        </mxCell>
        <mxCell id="Lt7-tqbaoz_NpnmCxqyy-70" style="rounded=0;orthogonalLoop=1;jettySize=auto;html=1;exitX=0.5;exitY=1;exitDx=0;exitDy=0;entryX=0.5;entryY=0;entryDx=0;entryDy=0;endArrow=none;endFill=0;" edge="1" parent="1" source="Lt7-tqbaoz_NpnmCxqyy-78" target="Lt7-tqbaoz_NpnmCxqyy-73">
          <mxGeometry relative="1" as="geometry">
            <mxPoint x="81.1277705345502" y="390.90909090909093" as="sourcePoint" />
          </mxGeometry>
        </mxCell>
        <mxCell id="Lt7-tqbaoz_NpnmCxqyy-71" style="rounded=0;orthogonalLoop=1;jettySize=auto;html=1;exitX=0.5;exitY=1;exitDx=0;exitDy=0;entryX=0.5;entryY=0;entryDx=0;entryDy=0;endArrow=none;endFill=0;" edge="1" parent="1" source="Lt7-tqbaoz_NpnmCxqyy-78" target="Lt7-tqbaoz_NpnmCxqyy-74">
          <mxGeometry relative="1" as="geometry">
            <mxPoint x="81.1277705345502" y="390.90909090909093" as="sourcePoint" />
          </mxGeometry>
        </mxCell>
        <mxCell id="Lt7-tqbaoz_NpnmCxqyy-72" style="rounded=0;orthogonalLoop=1;jettySize=auto;html=1;exitX=0.5;exitY=1;exitDx=0;exitDy=0;entryX=0.5;entryY=0;entryDx=0;entryDy=0;endArrow=none;endFill=0;" edge="1" parent="1" source="Lt7-tqbaoz_NpnmCxqyy-78" target="Lt7-tqbaoz_NpnmCxqyy-76">
          <mxGeometry relative="1" as="geometry">
            <mxPoint x="81.1277705345502" y="390.90909090909093" as="sourcePoint" />
          </mxGeometry>
        </mxCell>
        <mxCell id="Lt7-tqbaoz_NpnmCxqyy-73" value="" style="ellipse;whiteSpace=wrap;html=1;fillColor=#FFCC99;" vertex="1" parent="1">
          <mxGeometry x="59.61538461538461" y="397.72727272727275" width="11.734028683181224" height="8.18181818181818" as="geometry" />
        </mxCell>
        <mxCell id="Lt7-tqbaoz_NpnmCxqyy-74" value="" style="ellipse;whiteSpace=wrap;html=1;fillColor=#FFFF99;" vertex="1" parent="1">
          <mxGeometry x="75.26075619295958" y="398.1818181818182" width="11.734028683181224" height="8.18181818181818" as="geometry" />
        </mxCell>
        <mxCell id="Lt7-tqbaoz_NpnmCxqyy-75" style="rounded=0;orthogonalLoop=1;jettySize=auto;html=1;exitX=0.5;exitY=1;exitDx=0;exitDy=0;entryX=0.5;entryY=0;entryDx=0;entryDy=0;endArrow=none;endFill=0;" edge="1" parent="1" source="Lt7-tqbaoz_NpnmCxqyy-76">
          <mxGeometry relative="1" as="geometry">
            <mxPoint x="99.90221642764016" y="411.81818181818176" as="targetPoint" />
          </mxGeometry>
        </mxCell>
        <mxCell id="Lt7-tqbaoz_NpnmCxqyy-76" value="" style="ellipse;whiteSpace=wrap;html=1;fillColor=#CCFF99;" vertex="1" parent="1">
          <mxGeometry x="90.90612777053454" y="398.1818181818182" width="11.734028683181224" height="8.18181818181818" as="geometry" />
        </mxCell>
        <mxCell id="Lt7-tqbaoz_NpnmCxqyy-78" value="" style="ellipse;whiteSpace=wrap;html=1;fillColor=#FF9999;" vertex="1" parent="1">
          <mxGeometry x="75.26075619295958" y="380" width="11.734028683181224" height="8.18181818181818" as="geometry" />
        </mxCell>
        <mxCell id="Lt7-tqbaoz_NpnmCxqyy-80" value="" style="rounded=0;whiteSpace=wrap;html=1;" vertex="1" parent="1">
          <mxGeometry x="59.62" y="369.82" width="55.38461538461539" height="50" as="geometry" />
        </mxCell>
        <mxCell id="Lt7-tqbaoz_NpnmCxqyy-82" style="rounded=0;orthogonalLoop=1;jettySize=auto;html=1;exitX=0.5;exitY=1;exitDx=0;exitDy=0;entryX=0.5;entryY=0;entryDx=0;entryDy=0;endArrow=none;endFill=0;" edge="1" parent="1" source="Lt7-tqbaoz_NpnmCxqyy-90" target="Lt7-tqbaoz_NpnmCxqyy-85">
          <mxGeometry relative="1" as="geometry">
            <mxPoint x="85.7477705345502" y="383.90909090909093" as="sourcePoint" />
          </mxGeometry>
        </mxCell>
        <mxCell id="Lt7-tqbaoz_NpnmCxqyy-83" style="rounded=0;orthogonalLoop=1;jettySize=auto;html=1;exitX=0.5;exitY=1;exitDx=0;exitDy=0;entryX=0.5;entryY=0;entryDx=0;entryDy=0;endArrow=none;endFill=0;" edge="1" parent="1" source="Lt7-tqbaoz_NpnmCxqyy-90" target="Lt7-tqbaoz_NpnmCxqyy-86">
          <mxGeometry relative="1" as="geometry">
            <mxPoint x="85.7477705345502" y="383.90909090909093" as="sourcePoint" />
          </mxGeometry>
        </mxCell>
        <mxCell id="Lt7-tqbaoz_NpnmCxqyy-84" style="rounded=0;orthogonalLoop=1;jettySize=auto;html=1;exitX=0.5;exitY=1;exitDx=0;exitDy=0;entryX=0.5;entryY=0;entryDx=0;entryDy=0;endArrow=none;endFill=0;" edge="1" parent="1" source="Lt7-tqbaoz_NpnmCxqyy-90" target="Lt7-tqbaoz_NpnmCxqyy-88">
          <mxGeometry relative="1" as="geometry">
            <mxPoint x="85.7477705345502" y="383.90909090909093" as="sourcePoint" />
          </mxGeometry>
        </mxCell>
        <mxCell id="Lt7-tqbaoz_NpnmCxqyy-85" value="" style="ellipse;whiteSpace=wrap;html=1;fillColor=#FFCC99;" vertex="1" parent="1">
          <mxGeometry x="64.23538461538462" y="390.72727272727275" width="11.734028683181224" height="8.18181818181818" as="geometry" />
        </mxCell>
        <mxCell id="Lt7-tqbaoz_NpnmCxqyy-86" value="" style="ellipse;whiteSpace=wrap;html=1;fillColor=#FFFF99;" vertex="1" parent="1">
          <mxGeometry x="79.88075619295958" y="391.1818181818182" width="11.734028683181224" height="8.18181818181818" as="geometry" />
        </mxCell>
        <mxCell id="Lt7-tqbaoz_NpnmCxqyy-87" style="rounded=0;orthogonalLoop=1;jettySize=auto;html=1;exitX=0.5;exitY=1;exitDx=0;exitDy=0;entryX=0.5;entryY=0;entryDx=0;entryDy=0;endArrow=none;endFill=0;" edge="1" parent="1" source="Lt7-tqbaoz_NpnmCxqyy-88" target="Lt7-tqbaoz_NpnmCxqyy-89">
          <mxGeometry relative="1" as="geometry" />
        </mxCell>
        <mxCell id="Lt7-tqbaoz_NpnmCxqyy-88" value="" style="ellipse;whiteSpace=wrap;html=1;fillColor=#CCFF99;" vertex="1" parent="1">
          <mxGeometry x="95.52612777053454" y="391.1818181818182" width="11.734028683181224" height="8.18181818181818" as="geometry" />
        </mxCell>
        <mxCell id="Lt7-tqbaoz_NpnmCxqyy-89" value="" style="ellipse;whiteSpace=wrap;html=1;fillColor=#66FFB3;" vertex="1" parent="1">
          <mxGeometry x="98.65520208604954" y="404.8181818181818" width="11.734028683181224" height="8.18181818181818" as="geometry" />
        </mxCell>
        <mxCell id="Lt7-tqbaoz_NpnmCxqyy-90" value="" style="ellipse;whiteSpace=wrap;html=1;fillColor=#FF9999;" vertex="1" parent="1">
          <mxGeometry x="79.88075619295958" y="373" width="11.734028683181224" height="8.18181818181818" as="geometry" />
        </mxCell>
        <mxCell id="Lt7-tqbaoz_NpnmCxqyy-102" style="rounded=0;orthogonalLoop=1;jettySize=auto;html=1;exitX=1;exitY=0.5;exitDx=0;exitDy=0;entryX=0;entryY=0.5;entryDx=0;entryDy=0;endArrow=none;endFill=0;" edge="1" parent="1" source="Lt7-tqbaoz_NpnmCxqyy-92" target="Lt7-tqbaoz_NpnmCxqyy-93">
          <mxGeometry relative="1" as="geometry" />
        </mxCell>
        <mxCell id="Lt7-tqbaoz_NpnmCxqyy-92" value="" style="ellipse;whiteSpace=wrap;html=1;fillColor=#FF9999;" vertex="1" parent="1">
          <mxGeometry x="199.00075619295959" y="376" width="11.734028683181224" height="8.18181818181818" as="geometry" />
        </mxCell>
        <mxCell id="Lt7-tqbaoz_NpnmCxqyy-93" value="" style="ellipse;whiteSpace=wrap;html=1;fillColor=#FFCC99;" vertex="1" parent="1">
          <mxGeometry x="220.26538461538462" y="375.99727272727273" width="11.734028683181224" height="8.18181818181818" as="geometry" />
        </mxCell>
        <mxCell id="Lt7-tqbaoz_NpnmCxqyy-94" value="" style="ellipse;whiteSpace=wrap;html=1;fillColor=#FFFF99;" vertex="1" parent="1">
          <mxGeometry x="220.27075619295957" y="387.1818181818182" width="11.734028683181224" height="8.18181818181818" as="geometry" />
        </mxCell>
        <mxCell id="Lt7-tqbaoz_NpnmCxqyy-95" value="" style="ellipse;whiteSpace=wrap;html=1;fillColor=#CCFF99;" vertex="1" parent="1">
          <mxGeometry x="220.27612777053452" y="411.6318181818182" width="11.734028683181224" height="8.18181818181818" as="geometry" />
        </mxCell>
        <mxCell id="Lt7-tqbaoz_NpnmCxqyy-97" value="" style="ellipse;whiteSpace=wrap;html=1;fillColor=#66FFB3;" vertex="1" parent="1">
          <mxGeometry x="220.27520208604955" y="422.8181818181818" width="11.734028683181224" height="8.18181818181818" as="geometry" />
        </mxCell>
        <mxCell id="Lt7-tqbaoz_NpnmCxqyy-105" style="edgeStyle=orthogonalEdgeStyle;rounded=0;orthogonalLoop=1;jettySize=auto;html=1;exitX=1;exitY=0.5;exitDx=0;exitDy=0;entryX=0;entryY=0.5;entryDx=0;entryDy=0;endArrow=none;endFill=0;" edge="1" parent="1" source="Lt7-tqbaoz_NpnmCxqyy-98" target="Lt7-tqbaoz_NpnmCxqyy-97">
          <mxGeometry relative="1" as="geometry" />
        </mxCell>
        <mxCell id="Lt7-tqbaoz_NpnmCxqyy-98" value="" style="ellipse;whiteSpace=wrap;html=1;fillColor=#CCFF99;" vertex="1" parent="1">
          <mxGeometry x="198.9961277705345" y="422.8218181818182" width="11.734028683181224" height="8.18181818181818" as="geometry" />
        </mxCell>
        <mxCell id="Lt7-tqbaoz_NpnmCxqyy-103" style="edgeStyle=orthogonalEdgeStyle;rounded=0;orthogonalLoop=1;jettySize=auto;html=1;exitX=1;exitY=0.5;exitDx=0;exitDy=0;entryX=0;entryY=0.5;entryDx=0;entryDy=0;endArrow=none;endFill=0;" edge="1" parent="1" source="Lt7-tqbaoz_NpnmCxqyy-99" target="Lt7-tqbaoz_NpnmCxqyy-94">
          <mxGeometry relative="1" as="geometry" />
        </mxCell>
        <mxCell id="Lt7-tqbaoz_NpnmCxqyy-99" value="" style="ellipse;whiteSpace=wrap;html=1;fillColor=#FF9999;" vertex="1" parent="1">
          <mxGeometry x="199.00075619295959" y="387.18" width="11.734028683181224" height="8.18181818181818" as="geometry" />
        </mxCell>
        <mxCell id="Lt7-tqbaoz_NpnmCxqyy-104" style="edgeStyle=orthogonalEdgeStyle;rounded=0;orthogonalLoop=1;jettySize=auto;html=1;exitX=1;exitY=0.5;exitDx=0;exitDy=0;entryX=0;entryY=0.5;entryDx=0;entryDy=0;endArrow=none;endFill=0;" edge="1" parent="1" source="Lt7-tqbaoz_NpnmCxqyy-100" target="Lt7-tqbaoz_NpnmCxqyy-95">
          <mxGeometry relative="1" as="geometry" />
        </mxCell>
        <mxCell id="Lt7-tqbaoz_NpnmCxqyy-100" value="" style="ellipse;whiteSpace=wrap;html=1;fillColor=#FF9999;" vertex="1" parent="1">
          <mxGeometry x="199.00075619295959" y="411.63" width="11.734028683181224" height="8.18181818181818" as="geometry" />
        </mxCell>
        <mxCell id="Lt7-tqbaoz_NpnmCxqyy-101" value="&lt;b&gt;&lt;font style=&quot;font-size: 20px;&quot;&gt;...&lt;/font&gt;&lt;/b&gt;" style="text;html=1;align=center;verticalAlign=middle;resizable=0;points=[];autosize=1;strokeColor=none;fillColor=none;" vertex="1" parent="1">
          <mxGeometry x="195" y="376" width="40" height="40" as="geometry" />
        </mxCell>
        <mxCell id="Lt7-tqbaoz_NpnmCxqyy-106" value="函数调用对序列" style="text;html=1;align=center;verticalAlign=middle;resizable=0;points=[];autosize=1;strokeColor=none;fillColor=none;" vertex="1" parent="1">
          <mxGeometry x="160" y="347.68" width="110" height="30" as="geometry" />
        </mxCell>
        <mxCell id="Lt7-tqbaoz_NpnmCxqyy-108" value="" style="shape=flexArrow;endArrow=classic;html=1;rounded=0;" edge="1" parent="1">
          <mxGeometry width="50" height="50" relative="1" as="geometry">
            <mxPoint x="270" y="399.75" as="sourcePoint" />
            <mxPoint x="310" y="400.25" as="targetPoint" />
          </mxGeometry>
        </mxCell>
        <mxCell id="Lt7-tqbaoz_NpnmCxqyy-109" value="" style="rounded=1;whiteSpace=wrap;html=1;dashed=1;" vertex="1" parent="1">
          <mxGeometry x="304.87" y="505" width="100" height="80" as="geometry" />
        </mxCell>
        <mxCell id="Lt7-tqbaoz_NpnmCxqyy-122" style="edgeStyle=orthogonalEdgeStyle;rounded=0;orthogonalLoop=1;jettySize=auto;html=1;exitX=0;exitY=1;exitDx=0;exitDy=0;entryX=0;entryY=0.5;entryDx=0;entryDy=0;curved=1;endArrow=blockThin;endFill=1;" edge="1" parent="1" source="Lt7-tqbaoz_NpnmCxqyy-110" target="Lt7-tqbaoz_NpnmCxqyy-114">
          <mxGeometry relative="1" as="geometry">
            <Array as="points">
              <mxPoint x="340" y="408" />
              <mxPoint x="340" y="424" />
            </Array>
          </mxGeometry>
        </mxCell>
        <mxCell id="Lt7-tqbaoz_NpnmCxqyy-110" value="" style="ellipse;whiteSpace=wrap;html=1;fillColor=#CCFF99;" vertex="1" parent="1">
          <mxGeometry x="337.26612777053447" y="400.5018181818182" width="11.734028683181224" height="8.18181818181818" as="geometry" />
        </mxCell>
        <mxCell id="Lt7-tqbaoz_NpnmCxqyy-123" style="edgeStyle=orthogonalEdgeStyle;rounded=0;orthogonalLoop=1;jettySize=auto;html=1;exitX=0.5;exitY=1;exitDx=0;exitDy=0;entryX=0.5;entryY=0;entryDx=0;entryDy=0;curved=1;endArrow=blockThin;endFill=1;" edge="1" parent="1" source="Lt7-tqbaoz_NpnmCxqyy-111" target="Lt7-tqbaoz_NpnmCxqyy-110">
          <mxGeometry relative="1" as="geometry" />
        </mxCell>
        <mxCell id="Lt7-tqbaoz_NpnmCxqyy-126" style="edgeStyle=orthogonalEdgeStyle;rounded=0;orthogonalLoop=1;jettySize=auto;html=1;exitX=1;exitY=0.5;exitDx=0;exitDy=0;entryX=0.5;entryY=0;entryDx=0;entryDy=0;curved=1;endArrow=blockThin;endFill=1;" edge="1" parent="1" source="Lt7-tqbaoz_NpnmCxqyy-111" target="Lt7-tqbaoz_NpnmCxqyy-113">
          <mxGeometry relative="1" as="geometry" />
        </mxCell>
        <mxCell id="Lt7-tqbaoz_NpnmCxqyy-127" style="edgeStyle=orthogonalEdgeStyle;rounded=0;orthogonalLoop=1;jettySize=auto;html=1;exitX=0.5;exitY=1;exitDx=0;exitDy=0;entryX=0.5;entryY=0;entryDx=0;entryDy=0;elbow=vertical;curved=1;" edge="1" parent="1" source="Lt7-tqbaoz_NpnmCxqyy-111" target="Lt7-tqbaoz_NpnmCxqyy-112">
          <mxGeometry relative="1" as="geometry" />
        </mxCell>
        <mxCell id="Lt7-tqbaoz_NpnmCxqyy-111" value="" style="ellipse;whiteSpace=wrap;html=1;fillColor=#FF9999;" vertex="1" parent="1">
          <mxGeometry x="349.00075619295956" y="377.68" width="11.734028683181224" height="8.18181818181818" as="geometry" />
        </mxCell>
        <mxCell id="Lt7-tqbaoz_NpnmCxqyy-112" value="" style="ellipse;whiteSpace=wrap;html=1;fillColor=#CCFF99;" vertex="1" parent="1">
          <mxGeometry x="360.7361277705345" y="400.91181818181815" width="11.734028683181224" height="8.18181818181818" as="geometry" />
        </mxCell>
        <mxCell id="Lt7-tqbaoz_NpnmCxqyy-113" value="" style="ellipse;whiteSpace=wrap;html=1;fillColor=#FFCC99;" vertex="1" parent="1">
          <mxGeometry x="378.99538461538464" y="395.90727272727275" width="11.734028683181224" height="8.18181818181818" as="geometry" />
        </mxCell>
        <mxCell id="Lt7-tqbaoz_NpnmCxqyy-114" value="" style="ellipse;whiteSpace=wrap;html=1;fillColor=#66FFB3;" vertex="1" parent="1">
          <mxGeometry x="360.7352020860495" y="419.8081818181818" width="11.734028683181224" height="8.18181818181818" as="geometry" />
        </mxCell>
        <mxCell id="Lt7-tqbaoz_NpnmCxqyy-128" value="$p_{1}$" style="text;html=1;align=center;verticalAlign=middle;resizable=0;points=[];autosize=1;strokeColor=none;fillColor=none;" vertex="1" parent="1">
          <mxGeometry x="310" y="438" width="60" height="30" as="geometry" />
        </mxCell>
      </root>
    </mxGraphModel>
  </diagram>
</mxfile>
